<?xml version="1.0" encoding="UTF-8" standalone="no"?>
<svg
   xmlns:dc="http://purl.org/dc/elements/1.1/"
   xmlns:cc="http://creativecommons.org/ns#"
   xmlns:rdf="http://www.w3.org/1999/02/22-rdf-syntax-ns#"
   xmlns:svg="http://www.w3.org/2000/svg"
   xmlns="http://www.w3.org/2000/svg"
   viewBox="0 0 750 118.75"
   height="118.75"
   width="750"
   xml:space="preserve"
   version="1.1"
   id="svg2"><metadata
     id="metadata8"><rdf:RDF><cc:Work
         rdf:about=""><dc:format>image/svg+xml</dc:format><dc:type
           rdf:resource="http://purl.org/dc/dcmitype/StillImage" /><dc:title></dc:title></cc:Work></rdf:RDF></metadata><defs
     id="defs6"><clipPath
       id="clipPath18"
       clipPathUnits="userSpaceOnUse"><path
         id="path20"
         d="m 0,94.819 599.792,0 0,-94.759 L 0,0.06 0,94.819 Z" /></clipPath><clipPath
       id="clipPath24"
       clipPathUnits="userSpaceOnUse"><path
         id="path26"
         d="M 0,0 600,0 600,95 0,95 0,0 Z" /></clipPath><clipPath
       id="clipPath36"
       clipPathUnits="userSpaceOnUse"><path
         id="path38"
         d="M 0,0 600,0 600,95 0,95 0,0 Z" /></clipPath></defs><g
     transform="matrix(1.25,0,0,-1.25,0,118.75)"
     id="g10"><g
       id="g12" /><g
       id="g14"><g
         clip-path="url(#clipPath18)"
         id="g16"><g
           clip-path="url(#clipPath24)"
           id="g22"><path
             id="path28"
             style="fill:#211d1d;fill-opacity:1;fill-rule:evenodd;stroke:none"
             d="M 10.327,3.981 C 41.205,23.814 76.204,9.547 93.638,0 69.49,9.538 34.086,11.774 10.327,3.981" /><path
             id="path30"
             style="fill:#211d1d;fill-opacity:1;fill-rule:evenodd;stroke:none"
             d="M 17.871,15.514 C 12.855,11.81 10.028,8.686 10.028,8.686 c 0,-0.134 2.917,1.634 7.843,3.712 l 0,3.116 z m 0,12.301 c -3.253,6.298 -2.131,13.447 -2.131,13.447 0,0 -5.508,-12.627 2.131,-20.146 l 0,6.699 z m 0,33.547 0,-11.47 C 12.785,46.968 9.367,41.527 9.367,35.295 c 0,-6.23 3.418,-11.67 8.504,-14.595 l 0,-2.046 C 15.822,17.267 13.823,15.79 12.169,14.522 4.848,19.191 0,27.32 0,36.568 0,48.049 7.469,57.806 17.871,61.362 Z m 0,-11.47 0,11.47 c 2.359,0.807 4.867,1.294 7.475,1.41 -0.135,-1.309 -0.203,-2.639 -0.203,-3.985 0,-2.26 0.196,-4.475 0.571,-6.63 -2.851,-0.121 -5.52,-0.93 -7.843,-2.265 z m 0,-31.238 c 1.795,1.212 3.628,2.356 5.306,3.228 -0.819,0.522 -1.587,1.117 -2.279,1.797 -1.288,1.266 -2.275,2.678 -3.027,4.136 l 0,-6.699 0.197,-0.195 c 0.322,-0.304 0.661,-0.588 1.009,-0.853 -0.412,0.196 -0.814,0.407 -1.206,0.632 l 0,-2.046 z m 0,-6.256 0,3.116 c 9.651,7.124 27.409,16.394 48.759,9.703 32.449,-10.168 53.099,-24 78.174,-17.774 25.075,6.224 27.288,19.921 27.288,19.921 0,0 -4.427,-19.344 -29.133,-23.589 C 118.255,-0.471 95.497,4.289 66.551,15.08 47.013,22.363 28.103,16.714 17.871,12.398 Z m 46.662,82.421 c 14.836,0 27.606,-8.747 33.308,-21.302 l -11.607,0 c -5.123,6.32 -13.001,10.37 -21.837,10.37 -8.689,0 -16.453,-3.914 -21.581,-10.056 0.276,0.22 0.556,0.437 0.85,0.647 12.13,8.658 28.307,-0.885 28.307,-0.885 0,0 -15.372,4.443 -25.767,-2.843 -10.391,-7.287 -8.721,-21.874 -8.721,-21.874 0,0 -0.068,0.193 -0.173,0.544 0.043,-0.168 0.088,-0.334 0.135,-0.503 -2.492,1.837 -5.514,3.035 -8.803,3.35 -0.392,2.116 -0.598,4.294 -0.598,6.52 0,19.9 16.334,36.032 36.487,36.032" /></g></g></g><g
       id="g32"><g
         clip-path="url(#clipPath36)"
         id="g34"><path
           id="path40"
           style="fill:#211d1d;fill-opacity:1;fill-rule:evenodd;stroke:none"
           d="m 99.479,20.448 c 0,0 15.488,-7.929 30.053,-6.638 14.564,1.291 18.989,6.453 18.989,6.453 0,0 -5.346,-9.864 -19.358,-10.417 C 115.15,9.292 99.479,20.078 99.479,20.448" /><path
           id="path42"
           style="fill:#211d1d;fill-opacity:1;fill-rule:nonzero;stroke:none"
           d="m 87.604,70.539 13.018,0 0,-13.018 -13.018,0 0,13.018 z" /><path
           id="path44"
           style="fill:#211d1d;fill-opacity:1;fill-rule:nonzero;stroke:none"
           d="m 139.304,34.472 10.069,0 0,-10.068 -10.069,0 0,10.068 z" /><path
           id="path46"
           style="fill:#211d1d;fill-opacity:1;fill-rule:nonzero;stroke:none"
           d="m 103.292,82.467 17.36,0 0,-17.357 -17.36,0 0,17.357 z" /><path
           id="path48"
           style="fill:#211d1d;fill-opacity:1;fill-rule:nonzero;stroke:none"
           d="m 153.69,52.428 17.361,0 0,-17.357 -17.361,0 0,17.357 z" /><path
           id="path50"
           style="fill:#211d1d;fill-opacity:1;fill-rule:nonzero;stroke:none"
           d="m 122.317,63.775 9.678,0 0,-9.676 -9.678,0 0,9.676 z" /><path
           id="path52"
           style="fill:#211d1d;fill-opacity:1;fill-rule:nonzero;stroke:none"
           d="m 128.789,44.714 9.678,0 0,-9.676 -9.678,0 0,9.676 z" /><path
           id="path54"
           style="fill:#211d1d;fill-opacity:1;fill-rule:nonzero;stroke:none"
           d="m 108.416,43.749 9.679,0 0,-9.678 -9.679,0 0,9.678 z" /><path
           id="path56"
           style="fill:#211d1d;fill-opacity:1;fill-rule:nonzero;stroke:none"
           d="m 142.343,63.442 9.678,0 0,-9.678 -9.678,0 0,9.678 z" /><path
           id="path58"
           style="fill:#211d1d;fill-opacity:1;fill-rule:nonzero;stroke:none"
           d="m 239.254,44.066 c 0,3.037 -0.409,5.762 -1.225,8.174 -0.818,2.412 -1.979,4.454 -3.484,6.126 -1.506,1.671 -3.338,2.954 -5.494,3.848 -2.157,0.893 -4.589,1.34 -7.294,1.34 l -10.758,0 0,-38.975 10.758,0 c 2.705,0 5.137,0.446 7.294,1.34 2.156,0.893 3.988,2.175 5.494,3.847 1.505,1.672 2.666,3.714 3.484,6.126 0.816,2.412 1.225,5.137 1.225,8.174 z m 10.529,0 c 0,-4.057 -0.677,-7.785 -2.03,-11.18 -1.353,-3.394 -3.254,-6.316 -5.704,-8.767 -2.45,-2.45 -5.399,-4.352 -8.844,-5.704 -3.446,-1.354 -7.262,-2.03 -11.448,-2.03 l -21.134,0 0,55.362 21.134,0 c 4.186,0 8.002,-0.683 11.448,-2.048 3.445,-1.366 6.394,-3.268 8.844,-5.705 2.45,-2.438 4.351,-5.354 5.704,-8.748 1.353,-3.395 2.03,-7.122 2.03,-11.18" /><path
           id="path60"
           style="fill:#211d1d;fill-opacity:1;fill-rule:nonzero;stroke:none"
           d="m 254.109,55.667 9.456,0 0,-39.281 -9.456,0 0,39.281 z m 10.873,11.448 c 0,-0.818 -0.166,-1.583 -0.498,-2.298 -0.332,-0.715 -0.772,-1.34 -1.32,-1.876 -0.55,-0.536 -1.194,-0.964 -1.934,-1.283 -0.741,-0.319 -1.531,-0.478 -2.374,-0.478 -0.817,0 -1.588,0.159 -2.316,0.478 -0.727,0.319 -1.359,0.747 -1.895,1.283 -0.536,0.536 -0.964,1.161 -1.283,1.876 -0.319,0.715 -0.478,1.48 -0.478,2.298 0,0.842 0.159,1.633 0.478,2.373 0.319,0.74 0.747,1.378 1.283,1.915 0.536,0.536 1.168,0.962 1.895,1.282 0.728,0.319 1.499,0.479 2.316,0.479 0.843,0 1.633,-0.16 2.374,-0.479 0.74,-0.32 1.384,-0.746 1.934,-1.282 0.548,-0.537 0.988,-1.175 1.32,-1.915 0.332,-0.74 0.498,-1.531 0.498,-2.373" /><path
           id="path62"
           style="fill:#211d1d;fill-opacity:1;fill-rule:nonzero;stroke:none"
           d="m 284.01,36.983 c 1.174,0 2.195,0.159 3.063,0.479 0.867,0.319 1.589,0.759 2.163,1.321 0.575,0.561 1.008,1.238 1.302,2.029 0.293,0.791 0.441,1.659 0.441,2.604 0,1.939 -0.582,3.477 -1.743,4.612 -1.161,1.136 -2.903,1.705 -5.226,1.705 -2.322,0 -4.065,-0.569 -5.226,-1.705 -1.161,-1.135 -1.742,-2.673 -1.742,-4.612 0,-0.919 0.146,-1.775 0.44,-2.566 0.293,-0.791 0.728,-1.473 1.302,-2.047 0.574,-0.575 1.302,-1.022 2.182,-1.341 0.881,-0.32 1.896,-0.479 3.044,-0.479 z m 10.376,-22.247 c 0,0.782 -0.23,1.42 -0.689,1.915 -0.46,0.495 -1.086,0.879 -1.876,1.153 -0.792,0.275 -1.717,0.476 -2.776,0.607 -1.06,0.13 -2.182,0.195 -3.369,0.195 -1.187,0 -2.412,0 -3.676,0 -1.263,0 -2.482,0.14 -3.656,0.421 -1.072,-0.587 -1.934,-1.282 -2.585,-2.087 -0.651,-0.804 -0.976,-1.728 -0.976,-2.775 0,-0.69 0.173,-1.333 0.517,-1.934 0.345,-0.599 0.893,-1.116 1.646,-1.551 0.753,-0.433 1.729,-0.771 2.929,-1.014 1.2,-0.242 2.667,-0.364 4.403,-0.364 1.762,0 3.28,0.137 4.556,0.411 1.276,0.274 2.329,0.651 3.159,1.133 0.829,0.483 1.436,1.056 1.819,1.72 0.382,0.665 0.574,1.389 0.574,2.17 z m -10.376,41.62 c 1.685,0 3.267,-0.172 4.748,-0.517 1.48,-0.345 2.833,-0.849 4.058,-1.512 l 11.295,0 0,-3.523 c 0,-0.587 -0.154,-1.047 -0.461,-1.378 -0.304,-0.332 -0.828,-0.561 -1.568,-0.689 l -3.523,-0.651 c 0.255,-0.664 0.453,-1.365 0.593,-2.105 0.14,-0.741 0.211,-1.519 0.211,-2.336 0,-1.939 -0.389,-3.694 -1.168,-5.264 -0.778,-1.57 -1.851,-2.904 -3.216,-4.001 -1.366,-1.098 -2.986,-1.947 -4.862,-2.546 -1.876,-0.6 -3.912,-0.9 -6.107,-0.9 -1.48,0 -2.923,0.14 -4.326,0.421 -1.226,-0.746 -1.838,-1.581 -1.838,-2.506 0,-0.798 0.364,-1.383 1.092,-1.756 0.727,-0.372 1.684,-0.635 2.871,-0.79 1.187,-0.154 2.533,-0.231 4.039,-0.231 1.506,0 3.05,-0.065 4.632,-0.192 1.583,-0.128 3.127,-0.353 4.633,-0.672 1.506,-0.321 2.853,-0.826 4.039,-1.518 1.187,-0.691 2.145,-1.633 2.871,-2.823 0.729,-1.19 1.092,-2.721 1.092,-4.59 0,-1.741 -0.427,-3.432 -1.283,-5.07 -0.855,-1.639 -2.093,-3.099 -3.713,-4.379 -1.621,-1.28 -3.606,-2.311 -5.954,-3.093 -2.349,-0.78 -5.028,-1.171 -8.04,-1.171 -2.986,0 -5.577,0.287 -7.772,0.861 -2.196,0.575 -4.014,1.34 -5.456,2.297 -1.442,0.957 -2.521,2.062 -3.235,3.313 -0.715,1.251 -1.072,2.552 -1.072,3.905 0,1.837 0.561,3.382 1.684,4.632 1.123,1.251 2.681,2.246 4.671,2.986 -0.97,0.536 -1.748,1.251 -2.335,2.145 -0.588,0.892 -0.881,2.054 -0.881,3.484 0,0.586 0.102,1.193 0.307,1.819 0.204,0.625 0.517,1.244 0.938,1.856 0.421,0.613 0.95,1.193 1.589,1.742 0.637,0.549 1.391,1.04 2.258,1.474 -1.99,1.072 -3.554,2.502 -4.69,4.288 -1.135,1.787 -1.703,3.88 -1.703,6.279 0,1.94 0.388,3.695 1.167,5.264 0.779,1.57 1.863,2.91 3.255,4.02 1.391,1.111 3.037,1.959 4.939,2.546 1.901,0.587 3.975,0.881 6.221,0.881" /><path
           id="path64"
           style="fill:#211d1d;fill-opacity:1;fill-rule:nonzero;stroke:none"
           d="m 306.827,55.667 9.457,0 0,-39.281 -9.457,0 0,39.281 z m 10.874,11.448 c 0,-0.818 -0.167,-1.583 -0.498,-2.298 -0.332,-0.715 -0.772,-1.34 -1.321,-1.876 -0.549,-0.536 -1.194,-0.964 -1.933,-1.283 -0.741,-0.319 -1.532,-0.478 -2.374,-0.478 -0.817,0 -1.589,0.159 -2.316,0.478 -0.728,0.319 -1.36,0.747 -1.896,1.283 -0.536,0.536 -0.964,1.161 -1.282,1.876 -0.319,0.715 -0.478,1.48 -0.478,2.298 0,0.842 0.159,1.633 0.478,2.373 0.318,0.74 0.746,1.378 1.282,1.915 0.536,0.536 1.168,0.962 1.896,1.282 0.727,0.319 1.499,0.479 2.316,0.479 0.842,0 1.633,-0.16 2.374,-0.479 0.739,-0.32 1.384,-0.746 1.933,-1.282 0.549,-0.537 0.989,-1.175 1.321,-1.915 0.331,-0.74 0.498,-1.531 0.498,-2.373" /><path
           id="path66"
           style="fill:#211d1d;fill-opacity:1;fill-rule:nonzero;stroke:none"
           d="m 336.04,15.773 c -3.394,0 -6.011,0.963 -7.849,2.891 -1.837,1.926 -2.756,4.588 -2.756,7.982 l 0,21.938 -3.982,0 c -0.511,0 -0.951,0.166 -1.321,0.498 -0.37,0.331 -0.555,0.829 -0.555,1.493 l 0,3.752 6.318,1.034 1.991,10.72 c 0.101,0.51 0.338,0.906 0.708,1.187 0.369,0.28 0.836,0.421 1.397,0.421 l 4.901,0 0,-12.367 10.337,0 0,-6.738 -10.337,0 0,-21.287 c 0,-1.225 0.306,-2.182 0.919,-2.871 0.612,-0.69 1.428,-1.034 2.45,-1.034 0.587,0 1.078,0.07 1.474,0.21 0.395,0.141 0.74,0.287 1.034,0.441 0.293,0.153 0.555,0.299 0.785,0.44 0.229,0.14 0.459,0.211 0.689,0.211 0.28,0 0.51,-0.071 0.689,-0.211 0.178,-0.141 0.37,-0.351 0.574,-0.632 l 2.833,-4.594 c -1.378,-1.149 -2.961,-2.017 -4.747,-2.604 -1.787,-0.587 -3.637,-0.88 -5.552,-0.88" /><path
           id="path68"
           style="fill:#211d1d;fill-opacity:1;fill-rule:nonzero;stroke:none"
           d="m 361.347,22.282 c 0.969,0 1.862,0.088 2.679,0.264 0.817,0.175 1.589,0.439 2.317,0.791 0.727,0.351 1.428,0.785 2.105,1.299 0.676,0.516 1.36,1.125 2.049,1.829 l 0,6.575 c -2.757,0 -5.06,-0.173 -6.911,-0.521 -1.851,-0.346 -3.337,-0.79 -4.46,-1.33 -1.124,-0.54 -1.921,-1.17 -2.394,-1.89 -0.472,-0.719 -0.708,-1.503 -0.708,-2.351 0,-1.672 0.492,-2.867 1.474,-3.587 0.982,-0.72 2.266,-1.079 3.849,-1.079 z m 18.377,-5.897 -4.25,0 c -0.894,0 -1.595,0.134 -2.106,0.403 -0.511,0.267 -0.893,0.809 -1.148,1.627 l -0.843,2.795 c -0.995,-0.894 -1.972,-1.679 -2.929,-2.355 -0.957,-0.677 -1.946,-1.244 -2.967,-1.704 -1.021,-0.459 -2.106,-0.804 -3.254,-1.033 -1.149,-0.231 -2.425,-0.345 -3.829,-0.345 -1.66,0 -3.191,0.224 -4.594,0.672 -1.405,0.447 -2.611,1.12 -3.618,2.017 -1.009,0.895 -1.793,2.01 -2.355,3.341 -0.561,1.332 -0.842,2.881 -0.842,4.649 0,1.485 0.389,2.951 1.167,4.398 0.779,1.447 2.074,2.753 3.887,3.918 1.811,1.165 4.224,2.132 7.236,2.901 3.011,0.767 6.751,1.152 11.218,1.152 l 0,2.315 c 0,2.649 -0.556,4.611 -1.666,5.883 -1.11,1.273 -2.725,1.909 -4.843,1.909 -1.531,0 -2.808,-0.178 -3.829,-0.536 -1.02,-0.357 -1.908,-0.76 -2.661,-1.206 -0.753,-0.446 -1.448,-0.848 -2.086,-1.205 -0.639,-0.358 -1.34,-0.536 -2.106,-0.536 -0.638,0 -1.187,0.165 -1.646,0.497 -0.46,0.332 -0.83,0.74 -1.11,1.225 l -1.724,3.025 c 4.519,4.135 9.968,6.202 16.349,6.202 2.297,0 4.346,-0.377 6.145,-1.129 1.799,-0.754 3.325,-1.8 4.576,-3.14 1.25,-1.34 2.201,-2.942 2.851,-4.805 0.651,-1.862 0.977,-3.904 0.977,-6.125 l 0,-24.81" /><path
           id="path70"
           style="fill:#211d1d;fill-opacity:1;fill-rule:nonzero;stroke:none"
           d="m 385.812,73.279 9.457,0 0,-56.893 -9.457,0 0,56.893 z" /><path
           id="path72"
           style="fill:#211d1d;fill-opacity:1;fill-rule:nonzero;stroke:none"
           d="m 445.193,44.066 c 0,3.037 -0.402,5.762 -1.206,8.174 -0.803,2.412 -1.959,4.46 -3.465,6.145 -1.506,1.684 -3.337,2.973 -5.494,3.867 -2.157,0.893 -4.588,1.34 -7.294,1.34 -2.705,0 -5.143,-0.447 -7.312,-1.34 -2.17,-0.894 -4.014,-2.183 -5.532,-3.867 -1.519,-1.685 -2.687,-3.733 -3.503,-6.145 -0.818,-2.412 -1.226,-5.137 -1.226,-8.174 0,-3.037 0.408,-5.762 1.226,-8.174 0.816,-2.412 1.984,-4.454 3.503,-6.126 1.518,-1.672 3.362,-2.954 5.532,-3.847 2.169,-0.894 4.607,-1.34 7.312,-1.34 2.706,0 5.137,0.446 7.294,1.34 2.157,0.893 3.988,2.175 5.494,3.847 1.506,1.672 2.662,3.714 3.465,6.126 0.804,2.412 1.206,5.137 1.206,8.174 z m 10.568,0 c 0,-4.057 -0.677,-7.816 -2.03,-11.275 -1.353,-3.458 -3.254,-6.451 -5.705,-8.978 -2.45,-2.527 -5.398,-4.499 -8.843,-5.915 -3.447,-1.417 -7.262,-2.125 -11.449,-2.125 -4.185,0 -8.007,0.708 -11.466,2.125 -3.459,1.416 -6.419,3.388 -8.882,5.915 -2.464,2.527 -4.371,5.52 -5.724,8.978 -1.353,3.459 -2.029,7.218 -2.029,11.275 0,4.058 0.676,7.816 2.029,11.275 1.353,3.458 3.26,6.452 5.724,8.979 2.463,2.526 5.423,4.498 8.882,5.915 3.459,1.417 7.281,2.125 11.466,2.125 4.187,0 8.002,-0.715 11.449,-2.145 3.445,-1.429 6.393,-3.401 8.843,-5.915 2.451,-2.514 4.352,-5.501 5.705,-8.959 1.353,-3.459 2.03,-7.217 2.03,-11.275" /><path
           id="path74"
           style="fill:#211d1d;fill-opacity:1;fill-rule:nonzero;stroke:none"
           d="m 487.117,47.359 c -0.281,-0.358 -0.554,-0.638 -0.823,-0.843 -0.268,-0.204 -0.657,-0.305 -1.168,-0.305 -0.484,0 -0.957,0.146 -1.416,0.44 -0.46,0.293 -1.009,0.625 -1.647,0.995 -0.638,0.369 -1.397,0.701 -2.278,0.995 -0.88,0.293 -1.972,0.441 -3.273,0.441 -1.659,0 -3.115,-0.301 -4.365,-0.9 -1.251,-0.6 -2.291,-1.461 -3.12,-2.584 -0.83,-1.124 -1.449,-2.483 -1.857,-4.078 -0.408,-1.596 -0.612,-3.401 -0.612,-5.417 0,-2.093 0.222,-3.957 0.67,-5.59 0.446,-1.633 1.09,-3.006 1.933,-4.116 0.842,-1.11 1.862,-1.952 3.063,-2.526 1.199,-0.574 2.552,-0.862 4.058,-0.862 1.506,0 2.725,0.185 3.656,0.555 0.932,0.37 1.717,0.778 2.355,1.226 0.638,0.446 1.193,0.854 1.666,1.224 0.472,0.37 1.001,0.556 1.589,0.556 0.765,0 1.34,-0.294 1.723,-0.881 l 2.717,-3.446 c -1.047,-1.225 -2.181,-2.253 -3.407,-3.082 -1.225,-0.829 -2.495,-1.493 -3.81,-1.99 -1.314,-0.498 -2.673,-0.849 -4.077,-1.053 -1.404,-0.204 -2.795,-0.307 -4.173,-0.307 -2.425,0 -4.709,0.453 -6.853,1.36 -2.145,0.905 -4.015,2.226 -5.609,3.961 -1.596,1.737 -2.859,3.861 -3.79,6.375 -0.932,2.514 -1.398,5.379 -1.398,8.596 0,2.884 0.414,5.558 1.244,8.021 0.829,2.463 2.049,4.594 3.656,6.393 1.609,1.8 3.599,3.21 5.973,4.231 2.374,1.02 5.105,1.531 8.194,1.531 2.934,0 5.506,-0.472 7.714,-1.416 2.207,-0.945 4.193,-2.297 5.953,-4.059 l -2.488,-3.445" /><path
           id="path76"
           style="fill:#211d1d;fill-opacity:1;fill-rule:nonzero;stroke:none"
           d="m 508.633,49.503 c -2.757,0 -4.914,-0.779 -6.471,-2.336 -1.557,-1.557 -2.552,-3.765 -2.986,-6.622 l 17.765,0 c 0,1.224 -0.167,2.378 -0.498,3.464 -0.332,1.085 -0.841,2.036 -1.531,2.853 -0.689,0.816 -1.558,1.46 -2.603,1.932 -1.047,0.472 -2.273,0.709 -3.676,0.709 z m -0.192,6.776 c 2.476,0 4.754,-0.395 6.834,-1.187 2.08,-0.791 3.873,-1.946 5.38,-3.464 1.505,-1.519 2.68,-3.383 3.522,-5.59 0.843,-2.208 1.263,-4.728 1.263,-7.562 0,-0.715 -0.032,-1.307 -0.095,-1.78 -0.064,-0.473 -0.179,-0.842 -0.345,-1.11 -0.166,-0.268 -0.389,-0.459 -0.67,-0.575 -0.281,-0.114 -0.638,-0.171 -1.071,-0.171 l -24.275,0 c 0.282,-4.034 1.366,-6.995 3.255,-8.883 1.889,-1.889 4.39,-2.833 7.504,-2.833 1.531,0 2.853,0.178 3.963,0.536 1.11,0.357 2.08,0.753 2.909,1.186 0.829,0.434 1.557,0.829 2.183,1.188 0.625,0.356 1.231,0.536 1.818,0.536 0.383,0 0.715,-0.077 0.996,-0.23 0.281,-0.153 0.523,-0.371 0.728,-0.651 l 2.756,-3.446 c -1.047,-1.225 -2.22,-2.253 -3.522,-3.082 -1.302,-0.829 -2.661,-1.493 -4.078,-1.99 -1.416,-0.498 -2.858,-0.849 -4.326,-1.053 -1.468,-0.204 -2.891,-0.307 -4.269,-0.307 -2.731,0 -5.271,0.453 -7.619,1.36 -2.348,0.905 -4.39,2.245 -6.126,4.019 -1.736,1.775 -3.101,3.969 -4.096,6.586 -0.996,2.615 -1.494,5.647 -1.494,9.093 0,2.679 0.434,5.2 1.302,7.561 0.867,2.361 2.111,4.415 3.733,6.164 1.621,1.748 3.599,3.133 5.934,4.154 2.336,1.02 4.971,1.531 7.906,1.531" /><path
           id="path78"
           style="fill:#211d1d;fill-opacity:1;fill-rule:nonzero;stroke:none"
           d="m 541.712,22.282 c 0.97,0 1.862,0.088 2.68,0.264 0.816,0.175 1.588,0.439 2.316,0.791 0.728,0.351 1.429,0.785 2.105,1.299 0.676,0.516 1.36,1.125 2.049,1.829 l 0,6.575 c -2.757,0 -5.06,-0.173 -6.911,-0.521 -1.85,-0.346 -3.337,-0.79 -4.46,-1.33 -1.124,-0.54 -1.921,-1.17 -2.393,-1.89 -0.473,-0.719 -0.708,-1.503 -0.708,-2.351 0,-1.672 0.491,-2.867 1.473,-3.587 0.983,-0.72 2.266,-1.079 3.849,-1.079 z m 18.377,-5.897 -4.25,0 c -0.894,0 -1.595,0.134 -2.106,0.403 -0.51,0.267 -0.893,0.809 -1.148,1.627 l -0.843,2.795 c -0.995,-0.894 -1.971,-1.679 -2.929,-2.355 -0.957,-0.677 -1.946,-1.244 -2.966,-1.704 -1.022,-0.459 -2.107,-0.804 -3.255,-1.033 -1.149,-0.231 -2.425,-0.345 -3.828,-0.345 -1.66,0 -3.192,0.224 -4.595,0.672 -1.404,0.447 -2.61,1.12 -3.618,2.017 -1.009,0.895 -1.793,2.01 -2.355,3.341 -0.561,1.332 -0.842,2.881 -0.842,4.649 0,1.485 0.389,2.951 1.167,4.398 0.779,1.447 2.075,2.753 3.887,3.918 1.812,1.165 4.224,2.132 7.237,2.901 3.01,0.767 6.751,1.152 11.217,1.152 l 0,2.315 c 0,2.649 -0.555,4.611 -1.666,5.883 -1.11,1.273 -2.724,1.909 -4.842,1.909 -1.532,0 -2.809,-0.178 -3.83,-0.536 -1.02,-0.357 -1.908,-0.76 -2.661,-1.206 -0.753,-0.446 -1.448,-0.848 -2.086,-1.205 -0.638,-0.358 -1.339,-0.536 -2.106,-0.536 -0.638,0 -1.187,0.165 -1.646,0.497 -0.46,0.332 -0.83,0.74 -1.11,1.225 l -1.724,3.025 c 4.519,4.135 9.968,6.202 16.349,6.202 2.297,0 4.346,-0.377 6.146,-1.129 1.798,-0.754 3.324,-1.8 4.575,-3.14 1.25,-1.34 2.201,-2.942 2.851,-4.805 0.652,-1.862 0.977,-3.904 0.977,-6.125 l 0,-24.81" /><path
           id="path80"
           style="fill:#211d1d;fill-opacity:1;fill-rule:nonzero;stroke:none"
           d="m 565.563,16.385 0,39.282 5.782,0 c 1.225,0 2.029,-0.575 2.412,-1.723 l 0.651,-3.101 c 0.79,0.816 1.627,1.556 2.507,2.22 0.881,0.664 1.813,1.238 2.795,1.723 0.982,0.485 2.035,0.855 3.159,1.111 1.123,0.255 2.348,0.382 3.676,0.382 2.143,0 4.045,-0.363 5.704,-1.091 1.659,-0.727 3.044,-1.748 4.154,-3.063 1.111,-1.315 1.952,-2.885 2.527,-4.709 0.575,-1.825 0.862,-3.834 0.862,-6.03 l 0,-25.001 -9.457,0 0,25.001 c 0,2.399 -0.556,4.256 -1.666,5.572 -1.109,1.313 -2.775,1.97 -4.996,1.97 -1.634,0 -3.165,-0.37 -4.594,-1.11 -1.431,-0.741 -2.783,-1.748 -4.058,-3.024 l 0,-28.409 -9.458,0" /></g></g></g></svg>