<?xml version="1.0" encoding="UTF-8" standalone="no"?>
<svg
   xmlns:dc="http://purl.org/dc/elements/1.1/"
   xmlns:cc="http://creativecommons.org/ns#"
   xmlns:rdf="http://www.w3.org/1999/02/22-rdf-syntax-ns#"
   xmlns:svg="http://www.w3.org/2000/svg"
   xmlns="http://www.w3.org/2000/svg"
   viewBox="0 0 41 41"
   height="41"
   width="41"
   xml:space="preserve"
   version="1.1"
   id="svg2"><metadata
     id="metadata8"><rdf:RDF><cc:Work
         rdf:about=""><dc:format>image/svg+xml</dc:format><dc:type
           rdf:resource="http://purl.org/dc/dcmitype/StillImage" /><dc:title></dc:title></cc:Work></rdf:RDF></metadata><defs
     id="defs6"><clipPath
       id="clipPath18"
       clipPathUnits="userSpaceOnUse"><path
         id="path20"
         d="m 0.06,499.988 530.913,0 L 530.973,0 0.06,0 l 0,499.988 z" /></clipPath><clipPath
       id="clipPath24"
       clipPathUnits="userSpaceOnUse"><path
         id="path26"
         d="M 0,0 531,0 531,500 0,500 0,0 Z" /></clipPath><clipPath
       id="clipPath34"
       clipPathUnits="userSpaceOnUse"><path
         id="path36"
         d="M 0,0 531,0 531,500 0,500 0,0 Z" /></clipPath><clipPath
       id="clipPath60"
       clipPathUnits="userSpaceOnUse"><path
         id="path62"
         d="m 0.06,499.988 530.913,0 L 530.973,0 0.06,0 l 0,499.988 z" /></clipPath><clipPath
       id="clipPath66"
       clipPathUnits="userSpaceOnUse"><path
         id="path68"
         d="M 0,0 531,0 531,500 0,500 0,0 Z" /></clipPath><clipPath
       id="clipPath78"
       clipPathUnits="userSpaceOnUse"><path
         id="path80"
         d="M 0,0 531,0 531,500 0,500 0,0 Z" /></clipPath></defs><g
     transform="matrix(1.25,0,0,-1.25,0,625)"
     id="g10"><g
       id="g12" /><g
       id="g30"><g
         clip-path="url(#clipPath34)"
         id="g32"><path
           id="path38"
           style="fill:#1b1817;fill-opacity:1;fill-rule:evenodd;stroke:none"
           d="m 16.373838,499.88132 c -8.9939966,0 -16.2879968,-7.293 -16.2879968,-16.29 0,-7.197 4.6670002,-13.302 11.1399968,-15.456 0.815,-0.15 1.112,0.353 1.112,0.785 0,0.386 -0.014,1.411 -0.022,2.77 -4.5309966,-0.984 -5.4869966,2.184 -5.4869966,2.184 -0.741,1.882 -1.809,2.383 -1.809,2.383 -1.479,1.01 0.112,0.99 0.112,0.99 1.635,-0.115 2.495,-1.679 2.495,-1.679 1.4529996,-2.489 3.8129966,-1.77 4.7409966,-1.353 0.148,1.052 0.569,1.77 1.034,2.177 -3.6169991,0.411 -7.4199966,1.809 -7.4199966,8.051 0,1.778 0.635,3.233 1.677,4.371 -0.168,0.412 -0.727,2.069 0.16,4.311 0,0 1.3669993,0.438 4.4789966,-1.67 1.299,0.362 2.693,0.542 4.078,0.549 1.384,-0.007 2.777,-0.187 4.078,-0.549 3.11,2.108 4.475,1.67 4.475,1.67 0.889,-2.242 0.33,-3.899 0.163,-4.311 1.044,-1.138 1.674,-2.593 1.674,-4.371 0,-6.258 -3.809,-7.635 -7.437,-8.038 0.584,-0.503 1.105,-1.497 1.105,-3.017 0,-2.177 -0.02,-3.934 -0.02,-4.468 0,-0.436 0.294,-0.943 1.12,-0.784 6.468,2.159 11.131,8.26 11.131,15.455 0,8.997 -7.294,16.29 -16.291,16.29" /></g></g></g></svg>
