<?xml version="1.0" encoding="UTF-8" standalone="no"?>
<svg
   xmlns:dc="http://purl.org/dc/elements/1.1/"
   xmlns:cc="http://creativecommons.org/ns#"
   xmlns:rdf="http://www.w3.org/1999/02/22-rdf-syntax-ns#"
   xmlns:svg="http://www.w3.org/2000/svg"
   xmlns="http://www.w3.org/2000/svg"
   viewBox="0 0 180 180"
   height="180"
   width="180"
   xml:space="preserve"
   version="1.1"
   id="svg2"><metadata
     id="metadata8"><rdf:RDF><cc:Work
         rdf:about=""><dc:format>image/svg+xml</dc:format><dc:type
           rdf:resource="http://purl.org/dc/dcmitype/StillImage" /><dc:title></dc:title></cc:Work></rdf:RDF></metadata><defs
     id="defs6">
     <clipPath
       id="clipPath18"
       clipPathUnits="userSpaceOnUse"><path
         id="path20"
         d="m 0,144 155.463,0 0,-143.94 L 0,0.06 0,144 Z" /></clipPath><clipPath
       id="clipPath24"
       clipPathUnits="userSpaceOnUse"><path
         id="path26"
         d="M 0,0 156,0 156,144 0,144 0,0 Z" /></clipPath><clipPath
       id="clipPath34"
       clipPathUnits="userSpaceOnUse"><path
         id="path36"
         d="M 0,0 156,0 156,144 0,144 0,0 Z" /></clipPath></defs><g
     transform="matrix(1.25,0,0,-1.25,0,180)"
     id="g10"><g
       id="g12" /><g
       id="g14"><g
         clip-path="url(#clipPath18)"
         id="g16"><g
           clip-path="url(#clipPath24)"
           id="g22"><path
             id="path28"
             style="fill:#0977b6;fill-opacity:1;fill-rule:nonzero;stroke:none"
             d="M 133.344,144 10.629,144 C 4.765,144 0,139.352 0,133.624 L 0,10.389 C 0,4.655 4.765,0 10.629,0 l 122.715,0 c 5.875,0 10.66,4.655 10.66,10.389 l 0,123.235 c 0,5.728 -4.785,10.376 -10.66,10.376" /></g></g></g><g
       id="g30"><g
         clip-path="url(#clipPath34)"
         id="g32">
         <path
           id="path38"
           style="fill:#ffffff;fill-opacity:1;fill-rule:nonzero;stroke:none"
           d="m 32.034,124.174 c 6.828,0 12.378,-5.549 12.378,-12.379 0,-6.837 -5.55,-12.386 -12.378,-12.386 -6.846,0 -12.386,5.549 -12.386,12.386 0,6.83 5.54,12.379 12.386,12.379 M 21.35,90.015 l 21.359,0 0,-68.722 -21.359,0 0,68.722 z" />
           <path
           id="path40"
           style="fill:#ffffff;fill-opacity:1;fill-rule:nonzero;stroke:none"
           d="m 56.106,90.015 20.485,0 0,-9.391 0.286,0 c 2.851,5.403 9.819,11.099 20.209,11.099 21.629,0 25.622,-14.234 25.622,-32.734 l 0,-37.696 -21.344,0 0,33.42 c 0,7.969 -0.147,18.22 -11.099,18.22 -11.112,0 -12.819,-8.681 -12.819,-17.643 l 0,-33.997 -21.34,0 0,68.722" />
       </g></g></g></svg>
